<?xml version="1.0" standalone="no"?>
<!DOCTYPE svg PUBLIC "-//W3C//DTD SVG 20010904//EN"
 "http://www.w3.org/TR/2001/REC-SVG-20010904/DTD/svg10.dtd">
<svg version="1.0" xmlns="http://www.w3.org/2000/svg"
 width="965.000000pt" height="1280.000000pt" viewBox="0 0 965.000000 1280.000000"
 preserveAspectRatio="xMidYMid meet">
<metadata>
Created by potrace 1.15, written by Peter Selinger 2001-2017
</metadata>
<g transform="translate(0.000000,1280.000000) scale(0.100000,-0.100000)"
fill="#000000" stroke="none">
<path d="M4245 12689 c-153 -20 -309 -78 -380 -140 -25 -22 -77 -46 -173 -78
-584 -199 -976 -527 -1218 -1016 -135 -274 -223 -603 -254 -945 -6 -69 -18
-178 -27 -244 -10 -76 -13 -146 -9 -195 4 -42 9 -127 13 -189 l6 -112 -214 1
c-186 2 -225 -1 -299 -19 -151 -37 -415 -138 -460 -176 -8 -7 -71 -32 -139
-55 -396 -134 -654 -331 -730 -559 -26 -76 -26 -119 -2 -202 52 -184 130 -318
261 -450 170 -172 366 -274 633 -330 117 -25 317 -43 425 -38 70 2 82 1 78
-12 -47 -139 -49 -155 -50 -310 -1 -133 3 -166 22 -235 31 -108 75 -194 132
-259 45 -52 48 -59 55 -128 20 -217 76 -510 136 -707 26 -87 27 -97 13 -108
-13 -9 -15 -22 -9 -65 3 -29 8 -60 11 -69 3 -13 -22 -19 -158 -38 -520 -73
-1062 -217 -1684 -448 l-202 -74 -6 -1617 c-4 -889 -8 -2119 -9 -2732 l-2
-1115 1970 0 c1794 1 2032 3 2665 22 643 20 768 21 1660 13 2514 -24 3303 -31
3306 -28 3 4 24 3468 24 4253 l1 540 -48 18 c-26 10 -116 38 -200 62 -383 110
-821 180 -1278 206 l-200 11 -532 180 -532 180 30 52 c188 321 341 741 413
1136 44 240 59 415 59 685 1 257 -9 389 -43 604 -11 68 -19 125 -17 127 2 2
113 38 248 80 819 255 943 297 1124 384 167 79 206 117 218 210 5 41 3 47 -32
80 -75 71 -305 146 -1096 355 -258 69 -498 133 -532 142 -60 16 -62 18 -72 59
-6 24 -11 76 -11 116 0 102 -18 334 -36 458 -18 131 -76 366 -115 474 -22 57
-42 152 -69 326 -98 616 -184 961 -304 1216 -76 160 -180 294 -286 367 -25 17
-72 55 -105 85 -87 80 -148 106 -263 110 -76 3 -113 -1 -204 -23 -99 -25 -122
-27 -222 -22 -134 7 -247 36 -436 111 -105 42 -156 57 -230 66 -125 15 -526
21 -615 9z"/>
</g>
</svg>
